<mxfile host="app.diagrams.net" agent="Mozilla/5.0 (Windows NT 10.0; Win64; x64) AppleWebKit/537.36 (KHTML, like Gecko) Chrome/132.0.0.0 Safari/537.36" version="26.0.11">
  <diagram name="페이지-1" id="fo7Au6gOwIbeHGuzg6Fw">
    <mxGraphModel dx="869" dy="468" grid="1" gridSize="10" guides="1" tooltips="1" connect="1" arrows="1" fold="1" page="1" pageScale="1" pageWidth="827" pageHeight="1169" math="0" shadow="0">
      <root>
        <mxCell id="0" />
        <mxCell id="1" parent="0" />
        <mxCell id="aGBA6G-rKShTJmykvgtt-3" value="" style="edgeStyle=orthogonalEdgeStyle;rounded=0;orthogonalLoop=1;jettySize=auto;html=1;" parent="1" source="aGBA6G-rKShTJmykvgtt-8" target="aGBA6G-rKShTJmykvgtt-13" edge="1">
          <mxGeometry relative="1" as="geometry" />
        </mxCell>
        <mxCell id="aGBA6G-rKShTJmykvgtt-4" value="Public IP" style="edgeLabel;html=1;align=center;verticalAlign=middle;resizable=0;points=[];" parent="aGBA6G-rKShTJmykvgtt-3" vertex="1" connectable="0">
          <mxGeometry y="-1" relative="1" as="geometry">
            <mxPoint as="offset" />
          </mxGeometry>
        </mxCell>
        <mxCell id="aGBA6G-rKShTJmykvgtt-5" value="" style="edgeStyle=orthogonalEdgeStyle;rounded=0;orthogonalLoop=1;jettySize=auto;html=1;" parent="1" edge="1">
          <mxGeometry relative="1" as="geometry">
            <mxPoint x="414" y="140" as="sourcePoint" />
            <mxPoint x="290" y="140" as="targetPoint" />
          </mxGeometry>
        </mxCell>
        <mxCell id="aGBA6G-rKShTJmykvgtt-6" value="도메인 주소" style="edgeLabel;html=1;align=center;verticalAlign=middle;resizable=0;points=[];" parent="aGBA6G-rKShTJmykvgtt-5" vertex="1" connectable="0">
          <mxGeometry x="-0.0645" y="-1" relative="1" as="geometry">
            <mxPoint as="offset" />
          </mxGeometry>
        </mxCell>
        <mxCell id="aGBA6G-rKShTJmykvgtt-7" value="" style="edgeStyle=orthogonalEdgeStyle;rounded=0;orthogonalLoop=1;jettySize=auto;html=1;fillColor=#f8cecc;strokeColor=#000000;" parent="1" source="aGBA6G-rKShTJmykvgtt-8" target="aGBA6G-rKShTJmykvgtt-27" edge="1">
          <mxGeometry relative="1" as="geometry" />
        </mxCell>
        <mxCell id="aGBA6G-rKShTJmykvgtt-8" value="" style="rounded=1;whiteSpace=wrap;html=1;" parent="1" vertex="1">
          <mxGeometry x="414" y="90" width="270" height="140" as="geometry" />
        </mxCell>
        <mxCell id="aGBA6G-rKShTJmykvgtt-9" value="&lt;font&gt;웹 브라우저&lt;/font&gt;" style="verticalAlign=top;verticalLabelPosition=bottom;labelPosition=center;align=center;html=1;outlineConnect=0;gradientDirection=north;strokeWidth=1;shape=mxgraph.networks.pc;fillColor=#d5e8d4;strokeColor=#82b366;" parent="1" vertex="1">
          <mxGeometry x="444" y="120" width="100" height="70" as="geometry" />
        </mxCell>
        <mxCell id="aGBA6G-rKShTJmykvgtt-10" value="모바일 앱" style="outlineConnect=0;dashed=0;verticalLabelPosition=bottom;verticalAlign=top;align=center;html=1;shape=mxgraph.aws3.mobile_client;fillColor=#f8cecc;strokeColor=#b85450;" parent="1" vertex="1">
          <mxGeometry x="594" y="127" width="40.5" height="63" as="geometry" />
        </mxCell>
        <mxCell id="aGBA6G-rKShTJmykvgtt-13" value="" style="points=[[0.5,0,0],[0.765,0.48,0],[0.99,0.98,0],[0.5,1,0],[0.01,0.98,0],[0.235,0.48,0]];verticalLabelPosition=bottom;sketch=0;html=1;verticalAlign=top;aspect=fixed;align=center;pointerEvents=1;shape=mxgraph.cisco19.ldap;fillColor=#005073;strokeColor=none;" parent="1" vertex="1">
          <mxGeometry x="509" y="330" width="80" height="68" as="geometry" />
        </mxCell>
        <mxCell id="aGBA6G-rKShTJmykvgtt-14" value="Public IP 주소" style="edgeStyle=orthogonalEdgeStyle;rounded=0;orthogonalLoop=1;jettySize=auto;html=1;" parent="1" edge="1">
          <mxGeometry relative="1" as="geometry">
            <mxPoint x="414" y="170" as="targetPoint" />
            <mxPoint x="290" y="170" as="sourcePoint" />
          </mxGeometry>
        </mxCell>
        <mxCell id="aGBA6G-rKShTJmykvgtt-15" value="" style="image;aspect=fixed;html=1;points=[];align=center;fontSize=12;image=img/lib/azure2/networking/DNS_Zones.svg;" parent="1" vertex="1">
          <mxGeometry x="200" y="115" width="90" height="90" as="geometry" />
        </mxCell>
        <mxCell id="aGBA6G-rKShTJmykvgtt-16" value="로드밸런서" style="text;html=1;align=center;verticalAlign=middle;resizable=0;points=[];autosize=1;strokeColor=none;fillColor=none;" parent="1" vertex="1">
          <mxGeometry x="589" y="349" width="80" height="30" as="geometry" />
        </mxCell>
        <mxCell id="aGBA6G-rKShTJmykvgtt-26" value="사용자" style="text;html=1;align=center;verticalAlign=middle;resizable=0;points=[];autosize=1;strokeColor=none;fillColor=none;" parent="1" vertex="1">
          <mxGeometry x="519" y="60" width="60" height="30" as="geometry" />
        </mxCell>
        <mxCell id="aGBA6G-rKShTJmykvgtt-27" value="CDN" style="image;aspect=fixed;html=1;points=[];align=center;fontSize=12;image=img/lib/azure2/app_services/CDN_Profiles.svg;" parent="1" vertex="1">
          <mxGeometry x="800" y="125.25" width="118.15" height="69.5" as="geometry" />
        </mxCell>
        <mxCell id="aGBA6G-rKShTJmykvgtt-31" value="NoSQL" style="image;aspect=fixed;perimeter=ellipsePerimeter;html=1;align=center;shadow=0;dashed=0;spacingTop=3;image=img/lib/active_directory/database_server.svg;" parent="1" vertex="1">
          <mxGeometry x="1000" y="750" width="72.7" height="88.66" as="geometry" />
        </mxCell>
        <mxCell id="aGBA6G-rKShTJmykvgtt-39" value="" style="rounded=1;whiteSpace=wrap;html=1;dashed=1;" parent="1" vertex="1">
          <mxGeometry x="210" y="500" width="310" height="450" as="geometry" />
        </mxCell>
        <mxCell id="aGBA6G-rKShTJmykvgtt-42" value="" style="rounded=1;whiteSpace=wrap;html=1;dashed=1;" parent="1" vertex="1">
          <mxGeometry x="290" y="565" width="140" height="155" as="geometry" />
        </mxCell>
        <mxCell id="aGBA6G-rKShTJmykvgtt-41" value="웹서버" style="image;aspect=fixed;perimeter=ellipsePerimeter;html=1;align=center;shadow=0;dashed=0;spacingTop=3;image=img/lib/active_directory/server_farm.svg;" parent="1" vertex="1">
          <mxGeometry x="310" y="585" width="100" height="100" as="geometry" />
        </mxCell>
        <mxCell id="aGBA6G-rKShTJmykvgtt-43" value="" style="rounded=1;whiteSpace=wrap;html=1;" parent="1" vertex="1">
          <mxGeometry x="230" y="780" width="120" height="140" as="geometry" />
        </mxCell>
        <mxCell id="aGBA6G-rKShTJmykvgtt-45" value="" style="image;aspect=fixed;perimeter=ellipsePerimeter;html=1;align=center;shadow=0;dashed=0;spacingTop=3;image=img/lib/active_directory/database_server.svg;" parent="1" vertex="1">
          <mxGeometry x="243.64999999999998" y="780" width="72.7" height="88.66" as="geometry" />
        </mxCell>
        <mxCell id="aGBA6G-rKShTJmykvgtt-46" value="" style="rounded=1;whiteSpace=wrap;html=1;" parent="1" vertex="1">
          <mxGeometry x="380" y="780" width="120" height="140" as="geometry" />
        </mxCell>
        <mxCell id="aGBA6G-rKShTJmykvgtt-47" value="" style="outlineConnect=0;dashed=0;verticalLabelPosition=bottom;verticalAlign=top;align=center;html=1;shape=mxgraph.aws3.cache_node;fillColor=#2E73B8;gradientColor=none;" parent="1" vertex="1">
          <mxGeometry x="400" y="802.8300000000002" width="60" height="63" as="geometry" />
        </mxCell>
        <mxCell id="aGBA6G-rKShTJmykvgtt-48" value="" style="rounded=1;whiteSpace=wrap;html=1;dashed=1;" parent="1" vertex="1">
          <mxGeometry x="580" y="500" width="310" height="450" as="geometry" />
        </mxCell>
        <mxCell id="aGBA6G-rKShTJmykvgtt-49" value="" style="rounded=1;whiteSpace=wrap;html=1;dashed=1;" parent="1" vertex="1">
          <mxGeometry x="660" y="565" width="140" height="155" as="geometry" />
        </mxCell>
        <mxCell id="aGBA6G-rKShTJmykvgtt-50" value="웹서버" style="image;aspect=fixed;perimeter=ellipsePerimeter;html=1;align=center;shadow=0;dashed=0;spacingTop=3;image=img/lib/active_directory/server_farm.svg;" parent="1" vertex="1">
          <mxGeometry x="680" y="585" width="100" height="100" as="geometry" />
        </mxCell>
        <mxCell id="aGBA6G-rKShTJmykvgtt-51" value="" style="rounded=1;whiteSpace=wrap;html=1;" parent="1" vertex="1">
          <mxGeometry x="600" y="780" width="120" height="140" as="geometry" />
        </mxCell>
        <mxCell id="aGBA6G-rKShTJmykvgtt-53" value="" style="rounded=1;whiteSpace=wrap;html=1;" parent="1" vertex="1">
          <mxGeometry x="750" y="780" width="120" height="140" as="geometry" />
        </mxCell>
        <mxCell id="aGBA6G-rKShTJmykvgtt-54" value="" style="outlineConnect=0;dashed=0;verticalLabelPosition=bottom;verticalAlign=top;align=center;html=1;shape=mxgraph.aws3.cache_node;fillColor=#2E73B8;gradientColor=none;" parent="1" vertex="1">
          <mxGeometry x="770" y="802.8300000000002" width="60" height="63" as="geometry" />
        </mxCell>
        <mxCell id="aGBA6G-rKShTJmykvgtt-55" value="" style="endArrow=classic;html=1;rounded=0;exitX=0.5;exitY=1;exitDx=0;exitDy=0;exitPerimeter=0;entryX=0.5;entryY=0;entryDx=0;entryDy=0;" parent="1" source="aGBA6G-rKShTJmykvgtt-13" target="aGBA6G-rKShTJmykvgtt-48" edge="1">
          <mxGeometry width="50" height="50" relative="1" as="geometry">
            <mxPoint x="620" y="550" as="sourcePoint" />
            <mxPoint x="670" y="500" as="targetPoint" />
          </mxGeometry>
        </mxCell>
        <mxCell id="aGBA6G-rKShTJmykvgtt-64" value="지리적 라우팅" style="edgeLabel;html=1;align=center;verticalAlign=middle;resizable=0;points=[];" parent="aGBA6G-rKShTJmykvgtt-55" vertex="1" connectable="0">
          <mxGeometry x="-0.0624" y="-2" relative="1" as="geometry">
            <mxPoint y="-6" as="offset" />
          </mxGeometry>
        </mxCell>
        <mxCell id="aGBA6G-rKShTJmykvgtt-56" value="" style="endArrow=classic;html=1;rounded=0;exitX=0.5;exitY=1;exitDx=0;exitDy=0;exitPerimeter=0;entryX=0.5;entryY=0;entryDx=0;entryDy=0;" parent="1" source="aGBA6G-rKShTJmykvgtt-13" target="aGBA6G-rKShTJmykvgtt-39" edge="1">
          <mxGeometry width="50" height="50" relative="1" as="geometry">
            <mxPoint x="620" y="550" as="sourcePoint" />
            <mxPoint x="670" y="500" as="targetPoint" />
          </mxGeometry>
        </mxCell>
        <mxCell id="aGBA6G-rKShTJmykvgtt-63" value="지리적 라우팅" style="edgeLabel;html=1;align=center;verticalAlign=middle;resizable=0;points=[];" parent="aGBA6G-rKShTJmykvgtt-56" vertex="1" connectable="0">
          <mxGeometry x="-0.1413" y="-2" relative="1" as="geometry">
            <mxPoint as="offset" />
          </mxGeometry>
        </mxCell>
        <mxCell id="aGBA6G-rKShTJmykvgtt-57" value="" style="endArrow=classic;html=1;rounded=0;exitX=0.5;exitY=1;exitDx=0;exitDy=0;entryX=0.5;entryY=0;entryDx=0;entryDy=0;" parent="1" source="aGBA6G-rKShTJmykvgtt-42" target="aGBA6G-rKShTJmykvgtt-43" edge="1">
          <mxGeometry width="50" height="50" relative="1" as="geometry">
            <mxPoint x="620" y="650" as="sourcePoint" />
            <mxPoint x="670" y="600" as="targetPoint" />
          </mxGeometry>
        </mxCell>
        <mxCell id="aGBA6G-rKShTJmykvgtt-58" value="" style="endArrow=classic;html=1;rounded=0;exitX=0.5;exitY=1;exitDx=0;exitDy=0;entryX=0.5;entryY=0;entryDx=0;entryDy=0;" parent="1" source="aGBA6G-rKShTJmykvgtt-42" target="aGBA6G-rKShTJmykvgtt-46" edge="1">
          <mxGeometry width="50" height="50" relative="1" as="geometry">
            <mxPoint x="620" y="650" as="sourcePoint" />
            <mxPoint x="670" y="600" as="targetPoint" />
          </mxGeometry>
        </mxCell>
        <mxCell id="aGBA6G-rKShTJmykvgtt-59" value="" style="endArrow=classic;html=1;rounded=0;exitX=0.5;exitY=1;exitDx=0;exitDy=0;entryX=0.5;entryY=0;entryDx=0;entryDy=0;" parent="1" source="aGBA6G-rKShTJmykvgtt-49" target="aGBA6G-rKShTJmykvgtt-51" edge="1">
          <mxGeometry width="50" height="50" relative="1" as="geometry">
            <mxPoint x="620" y="650" as="sourcePoint" />
            <mxPoint x="670" y="600" as="targetPoint" />
          </mxGeometry>
        </mxCell>
        <mxCell id="aGBA6G-rKShTJmykvgtt-60" value="" style="endArrow=classic;html=1;rounded=0;exitX=0.5;exitY=1;exitDx=0;exitDy=0;entryX=0.5;entryY=0;entryDx=0;entryDy=0;" parent="1" source="aGBA6G-rKShTJmykvgtt-49" target="aGBA6G-rKShTJmykvgtt-53" edge="1">
          <mxGeometry width="50" height="50" relative="1" as="geometry">
            <mxPoint x="620" y="650" as="sourcePoint" />
            <mxPoint x="670" y="600" as="targetPoint" />
          </mxGeometry>
        </mxCell>
        <mxCell id="aGBA6G-rKShTJmykvgtt-61" value="" style="endArrow=classic;html=1;rounded=0;entryX=0;entryY=0.25;entryDx=0;entryDy=0;" parent="1" target="aGBA6G-rKShTJmykvgtt-31" edge="1">
          <mxGeometry width="50" height="50" relative="1" as="geometry">
            <mxPoint x="360" y="720" as="sourcePoint" />
            <mxPoint x="670" y="600" as="targetPoint" />
          </mxGeometry>
        </mxCell>
        <mxCell id="aGBA6G-rKShTJmykvgtt-62" value="" style="endArrow=classic;html=1;rounded=0;entryX=0.25;entryY=0;entryDx=0;entryDy=0;" parent="1" target="aGBA6G-rKShTJmykvgtt-31" edge="1">
          <mxGeometry width="50" height="50" relative="1" as="geometry">
            <mxPoint x="730" y="720" as="sourcePoint" />
            <mxPoint x="670" y="600" as="targetPoint" />
          </mxGeometry>
        </mxCell>
        <mxCell id="aGBA6G-rKShTJmykvgtt-65" value="&lt;div style=&quot;text-align: left;&quot;&gt;&lt;span style=&quot;background-color: transparent; color: light-dark(rgb(0, 0, 0), rgb(255, 255, 255));&quot;&gt;DC2&lt;/span&gt;&lt;/div&gt;&lt;div&gt;US-West&lt;/div&gt;" style="text;html=1;align=center;verticalAlign=middle;whiteSpace=wrap;rounded=0;" parent="1" vertex="1">
          <mxGeometry x="600" y="520" width="60" height="30" as="geometry" />
        </mxCell>
        <mxCell id="aGBA6G-rKShTJmykvgtt-66" value="&lt;div style=&quot;text-align: left;&quot;&gt;&lt;span style=&quot;background-color: transparent; color: light-dark(rgb(0, 0, 0), rgb(255, 255, 255));&quot;&gt;DC1&lt;/span&gt;&lt;/div&gt;&lt;div&gt;US-East&lt;/div&gt;" style="text;html=1;align=center;verticalAlign=middle;whiteSpace=wrap;rounded=0;" parent="1" vertex="1">
          <mxGeometry x="230" y="520" width="60" height="30" as="geometry" />
        </mxCell>
        <mxCell id="4-xbf5f5KX5ARbRX3BtK-1" value="" style="image;aspect=fixed;perimeter=ellipsePerimeter;html=1;align=center;shadow=0;dashed=0;spacingTop=3;image=img/lib/active_directory/database_server.svg;" vertex="1" parent="1">
          <mxGeometry x="253.64999999999998" y="790" width="72.7" height="88.66" as="geometry" />
        </mxCell>
        <mxCell id="4-xbf5f5KX5ARbRX3BtK-2" value="데이터베이스" style="image;aspect=fixed;perimeter=ellipsePerimeter;html=1;align=center;shadow=0;dashed=0;spacingTop=3;image=img/lib/active_directory/database_server.svg;" vertex="1" parent="1">
          <mxGeometry x="263.65" y="800" width="72.7" height="88.66" as="geometry" />
        </mxCell>
        <mxCell id="4-xbf5f5KX5ARbRX3BtK-3" value="" style="outlineConnect=0;dashed=0;verticalLabelPosition=bottom;verticalAlign=top;align=center;html=1;shape=mxgraph.aws3.cache_node;fillColor=#2E73B8;gradientColor=none;" vertex="1" parent="1">
          <mxGeometry x="410" y="812.8300000000002" width="60" height="63" as="geometry" />
        </mxCell>
        <mxCell id="4-xbf5f5KX5ARbRX3BtK-4" value="캐시" style="outlineConnect=0;dashed=0;verticalLabelPosition=bottom;verticalAlign=top;align=center;html=1;shape=mxgraph.aws3.cache_node;fillColor=#2E73B8;gradientColor=none;" vertex="1" parent="1">
          <mxGeometry x="420" y="822.8300000000002" width="60" height="63" as="geometry" />
        </mxCell>
        <mxCell id="4-xbf5f5KX5ARbRX3BtK-5" value="" style="image;aspect=fixed;perimeter=ellipsePerimeter;html=1;align=center;shadow=0;dashed=0;spacingTop=3;image=img/lib/active_directory/database_server.svg;" vertex="1" parent="1">
          <mxGeometry x="613.65" y="780" width="72.7" height="88.66" as="geometry" />
        </mxCell>
        <mxCell id="4-xbf5f5KX5ARbRX3BtK-6" value="" style="image;aspect=fixed;perimeter=ellipsePerimeter;html=1;align=center;shadow=0;dashed=0;spacingTop=3;image=img/lib/active_directory/database_server.svg;" vertex="1" parent="1">
          <mxGeometry x="623.65" y="790" width="72.7" height="88.66" as="geometry" />
        </mxCell>
        <mxCell id="4-xbf5f5KX5ARbRX3BtK-7" value="데이터베이스" style="image;aspect=fixed;perimeter=ellipsePerimeter;html=1;align=center;shadow=0;dashed=0;spacingTop=3;image=img/lib/active_directory/database_server.svg;" vertex="1" parent="1">
          <mxGeometry x="633.65" y="800" width="72.7" height="88.66" as="geometry" />
        </mxCell>
        <mxCell id="4-xbf5f5KX5ARbRX3BtK-8" value="" style="outlineConnect=0;dashed=0;verticalLabelPosition=bottom;verticalAlign=top;align=center;html=1;shape=mxgraph.aws3.cache_node;fillColor=#2E73B8;gradientColor=none;" vertex="1" parent="1">
          <mxGeometry x="780" y="812.8300000000002" width="60" height="63" as="geometry" />
        </mxCell>
        <mxCell id="4-xbf5f5KX5ARbRX3BtK-9" value="캐시" style="outlineConnect=0;dashed=0;verticalLabelPosition=bottom;verticalAlign=top;align=center;html=1;shape=mxgraph.aws3.cache_node;fillColor=#2E73B8;gradientColor=none;" vertex="1" parent="1">
          <mxGeometry x="790" y="822.8300000000002" width="60" height="63" as="geometry" />
        </mxCell>
      </root>
    </mxGraphModel>
  </diagram>
</mxfile>
